<svg width="166" height="51" viewBox="0 0 166 51" fill="none" xmlns="http://www.w3.org/2000/svg">
<rect x="6" y="1" width="145" height="46" fill="white"/>
<path d="M158.231 42.5744V41.6637C158.459 41.6637 158.459 41.4361 158.686 41.2084C159.37 40.2977 159.597 38.9317 159.597 37.5657V34.3783H163.012C164.606 34.3783 165.972 33.0123 165.972 31.4186V18.669C165.972 17.0753 164.606 15.7093 163.012 15.7093H159.597V12.0665C159.597 10.7005 159.142 9.56217 158.686 8.42382C158.686 8.42382 158.459 8.19615 158.231 8.19615V7.7408C158.231 3.41506 154.816 0 150.49 0H7.05779C3.18739 0.455341 0 3.64273 0 7.7408V42.5744C0 46.6725 2.95972 49.8599 7.05779 50.3152H150.49C154.816 50.0876 158.231 46.6725 158.231 42.5744ZM13.4326 47.8109H7.05779V2.27671H13.2049H83.7828H150.718V15.7093V34.3783V47.5832H83.5552H13.4326V47.8109Z" fill="#231F20"/>
<path d="M126.31 45.4131H112.401C111.209 45.4131 110.414 44.4973 110.414 43.1236V6.49188C110.414 5.11819 111.209 4.20239 112.401 4.20239H126.31C127.503 4.20239 128.298 5.11819 128.298 6.49188V43.1236C128.298 44.4973 127.304 45.4131 126.31 45.4131Z" fill="#E2E2E2"/>
<path d="M146.527 45.4131H132.617C131.425 45.4131 130.63 44.4973 130.63 43.1236V6.49188C130.63 5.11819 131.425 4.20239 132.617 4.20239H146.527C147.719 4.20239 148.514 5.11819 148.514 6.49188V43.1236C148.514 44.4973 147.52 45.4131 146.527 45.4131Z" fill="#E2E2E2"/>
<path d="M106.18 45.4131H92.8749C91.7345 45.4131 90.9742 44.4973 90.9742 43.1236V6.49188C90.9742 5.11819 91.7345 4.20239 92.8749 4.20239H106.18C107.32 4.20239 108.081 5.11819 108.081 6.49188V43.1236C108.081 44.4973 107.13 45.4131 106.18 45.4131Z" fill="#e4e435"/>
<path d="M86.6546 45.4131H72.7449C71.5527 45.4131 70.7578 44.4973 70.7578 43.1236V6.49188C70.7578 5.11819 71.5527 4.20239 72.7449 4.20239H86.6546C87.8469 4.20239 88.6417 5.11819 88.6417 6.49188V43.1236C88.6417 44.4973 87.6482 45.4131 86.6546 45.4131Z" fill="#f6b53d"/>
<path d="M66.4382 45.4131H52.5285C51.3362 45.4131 50.5414 44.4973 50.5414 43.1236V6.49188C50.5414 5.11819 51.3362 4.20239 52.5285 4.20239H66.4382C67.6304 4.20239 68.4253 5.11819 68.4253 6.49188V43.1236C68.4253 44.4973 67.4317 45.4131 66.4382 45.4131Z" fill="#f19800"/>
<path d="M46.2214 45.4131H32.3117C31.1194 45.4131 30.3246 44.4973 30.3246 43.1236V6.49188C30.3246 5.11819 31.1194 4.20239 32.3117 4.20239H46.2214C47.4136 4.20239 48.2085 5.11819 48.2085 6.49188V43.1236C48.2085 44.4973 47.2149 45.4131 46.2214 45.4131Z" fill=" #e86201"/>
<path d="M26.005 45.4131H12.0953C10.9031 45.4131 10.1082 44.4973 10.1082 43.1236V6.49188C10.1082 5.11819 10.9031 4.20239 12.0953 4.20239H26.005C27.1973 4.20239 27.9921 5.11819 27.9921 6.49188V43.1236C27.9921 44.4973 26.9986 45.4131 26.005 45.4131Z" fill="#EC1C24"/>
</svg>
