<svg width="48" height="55" viewBox="0 0 48 55" fill="none" xmlns="http://www.w3.org/2000/svg">
<path d="M47.6415 9.30359C47.6415 9.14484 47.5622 8.98609 47.4828 8.82734C47.4034 8.66859 47.324 8.50984 47.2447 8.35109L47.1653 8.27172C47.0859 8.11297 46.9272 8.03359 46.7684 7.95422C46.6097 7.87484 46.4509 7.79547 46.2922 7.71609H46.2128C46.054 7.63672 45.8953 7.63672 45.7365 7.63672H32.0047C30.8934 7.63672 30.0203 8.50984 30.0203 9.62109C30.0203 10.7323 30.8934 11.6055 32.0047 11.6055H40.974L29.3059 23.1148C26.2103 20.6542 22.4003 19.3048 18.3522 19.3048C8.66843 19.3048 0.810303 27.163 0.810303 36.8467C0.810303 46.5305 8.66843 54.3886 18.3522 54.3886C28.0359 54.3886 35.894 46.5305 35.894 36.8467C35.894 32.7986 34.5447 28.9886 32.084 25.893L43.7522 14.2248V23.1942C43.7522 24.3055 44.6253 25.1786 45.7365 25.1786C46.8478 25.1786 47.7209 24.3055 47.7209 23.1942V9.54172C47.7209 9.46234 47.7209 9.46234 47.7209 9.38297C47.6415 9.38297 47.6415 9.30359 47.6415 9.30359ZM18.3522 50.4992C10.8115 50.4992 4.69968 44.3873 4.69968 36.8467C4.69968 29.3061 10.8115 23.1942 18.3522 23.1942C22.0034 23.1942 25.4165 24.623 28.0359 27.163C30.5759 29.7823 32.0047 33.1955 32.0047 36.8467C32.0047 44.3873 25.8928 50.4992 18.3522 50.4992Z" fill="#121212"/>
<path d="M1.60411 23.035C1.12786 23.035 0.651614 22.7968 0.334115 22.4C-0.22151 21.6856 -0.0627605 20.7331 0.651614 20.1775L7.79536 14.6212C8.50974 14.0656 9.46224 14.2243 10.0179 14.9387C10.5735 15.6531 10.4147 16.6056 9.70036 17.1612L2.55661 22.7175C2.31849 22.9556 1.92161 23.035 1.60411 23.035Z" fill="#121212"/>
<path d="M15.8916 23.0352C15.5741 23.0352 15.1772 22.9558 14.9391 22.7177L7.79536 17.1615C7.08098 16.6058 7.00161 15.6533 7.47786 14.939C8.03348 14.2246 8.98598 14.1452 9.70036 14.6215L16.8441 20.1777C17.5585 20.7333 17.6379 21.6858 17.1616 22.4002C16.8441 22.7971 16.3679 23.0352 15.8916 23.0352Z" fill="#121212"/>
<path d="M1.60411 15.8914C1.12786 15.8914 0.651614 15.6533 0.334115 15.2564C-0.22151 14.542 -0.0627605 13.5895 0.651614 13.0339L7.79536 7.47767C8.50974 6.92204 9.46224 7.08079 10.0179 7.79517C10.5735 8.50954 10.4147 9.46204 9.70036 10.0177L2.55661 15.5739C2.31849 15.812 1.92161 15.8914 1.60411 15.8914Z" fill="#121212"/>
<path d="M15.8916 15.8917C15.5741 15.8917 15.1772 15.8123 14.9391 15.5742L7.79536 10.0179C7.08098 9.46229 7.00161 8.50979 7.47786 7.79542C8.03348 7.08104 8.98598 7.00167 9.70036 7.47792L16.8441 13.0342C17.5585 13.5898 17.6379 14.5423 17.1616 15.2567C16.8441 15.6535 16.3679 15.8917 15.8916 15.8917Z" fill="#121212"/>
<path d="M1.60411 8.74786C1.12786 8.74786 0.651614 8.50974 0.334115 8.11286C-0.22151 7.39849 -0.0627605 6.44599 0.651614 5.89036L7.79536 0.334115C8.50974 -0.22151 9.46224 -0.0627605 10.0179 0.651614C10.5735 1.36599 10.4147 2.31849 9.70036 2.87411L2.55661 8.43036C2.31849 8.66849 1.92161 8.74786 1.60411 8.74786Z" fill="#121212"/>
<path d="M15.8916 8.74811C15.5741 8.74811 15.1772 8.66873 14.9391 8.43061L7.79536 2.87436C7.08098 2.31874 7.00161 1.36624 7.47786 0.651862C8.03348 -0.0625124 8.98598 -0.141887 9.70036 0.334363L16.8441 5.89061C17.5585 6.44624 17.6379 7.39874 17.1616 8.11311C16.8441 8.50998 16.3679 8.74811 15.8916 8.74811Z" fill="#121212"/>
</svg>
