<svg width="48" height="56" viewBox="0 0 48 56" fill="none" xmlns="http://www.w3.org/2000/svg">
<path d="M46.7586 34.446C47.5034 33.6184 48 32.4598 48 31.2184C48 28.5702 45.8482 26.4184 43.2 26.4184H33.8482C34.7586 23.6046 35.1724 19.8805 35.1724 18.3081V16.7357C35.1724 13.1771 32.2758 10.3633 28.8 10.3633H27.2276C26.4827 10.3633 25.8207 10.8598 25.6551 11.6047L24.7448 15.0805C23.5034 19.9633 19.6138 25.3426 15.6414 26.3357C14.9793 24.5978 13.2414 23.2736 11.1724 23.2736H1.57241C0.662068 23.2736 0 24.0184 0 24.846V53.646C0 54.5563 0.744827 55.2184 1.57241 55.2184H11.1724C13.0758 55.2184 14.731 54.0598 15.4758 52.4874L20.9379 54.3081C22.7586 54.8874 24.5793 55.2184 26.4827 55.2184H39.8896C42.5379 55.2184 44.6896 53.0667 44.6896 50.4184C44.6896 49.7563 44.6069 49.177 44.3586 48.6805C46.4275 48.1012 47.9172 46.2805 47.9172 44.046C47.9172 42.8046 47.4206 41.7288 46.6758 40.8184C47.4206 39.9908 47.9172 38.8322 47.9172 37.5908C47.9172 36.3495 47.5034 35.3564 46.7586 34.446ZM12.8276 50.4184C12.8276 51.3288 12.0827 51.9908 11.2552 51.9908H3.22758V26.5012H11.2552C12.1655 26.5012 12.8276 27.246 12.8276 28.0736V50.4184ZM39.9724 36.1012H43.2C44.1103 36.1012 44.7724 36.846 44.7724 37.6736C44.7724 38.5012 44.0275 39.246 43.2 39.246H39.9724C39.062 39.246 38.4 39.9908 38.4 40.8184C38.4 41.646 39.1448 42.3908 39.9724 42.3908H43.2C44.1103 42.3908 44.7724 43.1357 44.7724 43.9632C44.7724 44.8736 44.0275 45.5357 43.2 45.5357H39.9724C39.062 45.5357 38.4 46.2805 38.4 47.1081C38.4 47.9357 39.1448 48.6805 39.9724 48.6805C40.8827 48.6805 41.5448 49.4253 41.5448 50.2529C41.5448 51.1632 40.8 51.8253 39.9724 51.8253H26.5655C24.9931 51.8253 23.5034 51.577 22.0138 51.0805L15.9724 49.0943V29.4805C18.4552 28.984 20.9379 27.4115 23.1724 24.846C25.3241 22.2805 27.062 18.9702 27.8896 15.8253L28.4689 13.5909H28.8C30.5379 13.5909 32.0276 14.9978 32.0276 16.8184V18.3909C32.0276 20.5426 31.3655 24.6805 30.5379 26.5012H27.3103C26.4 26.5012 25.7379 27.246 25.7379 28.0736C25.7379 28.9012 26.4827 29.646 27.3103 29.646H43.2827C44.1931 29.646 44.8551 30.3908 44.8551 31.2184C44.8551 32.046 44.1103 32.7908 43.2827 32.7908H40.0551C39.1448 32.7908 38.4827 33.5357 38.4827 34.3633C38.4 35.3564 39.062 36.1012 39.9724 36.1012Z" fill="black"/>
<path d="M31.9449 5.56342V2.25308C31.9449 1.34273 31.2 0.680664 30.3725 0.680664C29.5449 0.680664 28.8 1.42549 28.8 2.25308V5.56342C28.8 6.47376 29.5449 7.13583 30.3725 7.13583C31.2 7.13583 31.9449 6.47376 31.9449 5.56342Z" fill="black"/>
<path d="M23.5861 10.0319C24.2482 9.36985 24.2482 8.37675 23.5861 7.79744L21.3516 5.56296C20.6896 4.90089 19.6965 4.90089 19.1172 5.56296C18.5378 6.22503 18.4551 7.21813 19.1172 7.79744L21.3516 10.0319C21.9309 10.6112 23.0068 10.6112 23.5861 10.0319Z" fill="black"/>
<path d="M39.393 10.0319L41.6275 7.79744C42.2896 7.13537 42.2896 6.14227 41.6275 5.56296C40.9654 4.90089 39.9723 4.90089 39.393 5.56296L37.1585 7.71468C36.4965 8.37675 36.4965 9.36985 37.1585 9.94916C37.8206 10.6112 38.8137 10.6112 39.393 10.0319Z" fill="black"/>
</svg>
