<svg width="35" height="35" viewBox="0 0 35 35" fill="none" xmlns="http://www.w3.org/2000/svg">
<g clip-path="url(#clip0)">
<path d="M29.2121 18.9517C29.1281 18.9093 29.0439 18.8882 28.959 18.8882C28.7764 18.8882 28.6154 18.9583 28.4752 19.0988L27.1282 20.4456C27.0023 20.5721 26.939 20.7262 26.939 20.9088V26.2541C26.939 27.1803 26.61 27.9727 25.9501 28.6324C25.2907 29.2918 24.4979 29.6215 23.5718 29.6215H6.06131C5.13515 29.6215 4.34234 29.2918 3.68296 28.6324C3.02343 27.9728 2.69385 27.1804 2.69385 26.2541V8.74403C2.69385 7.81803 3.02343 7.02529 3.68296 6.36569C4.34234 5.70624 5.13515 5.37658 6.06131 5.37658H23.5719C23.8806 5.37658 24.1963 5.41867 24.5189 5.50293C24.6032 5.53079 24.6663 5.54502 24.7079 5.54502C24.8905 5.54502 25.052 5.47506 25.1922 5.33478L26.2235 4.30351C26.3917 4.13537 26.4551 3.93177 26.4126 3.69344C26.3705 3.46891 26.2441 3.30747 26.0336 3.20936C25.2764 2.85906 24.4553 2.68311 23.5713 2.68311H6.06131C4.39166 2.68311 2.96394 3.27592 1.77831 4.46156C0.592818 5.64734 0 7.07483 0 8.74455V26.2551C0 27.9245 0.592818 29.3521 1.77838 30.5378C2.96402 31.7237 4.39173 32.3165 6.06138 32.3165H23.5718C25.2412 32.3165 26.6691 31.7237 27.8547 30.5378C29.0404 29.3521 29.6337 27.9246 29.6337 26.2551V19.5619C29.6336 19.2675 29.4926 19.0642 29.2121 18.9517Z" fill="white"/>
<path d="M34.4951 6.87161L32.1798 4.55629C31.843 4.21963 31.4429 4.05127 30.9798 4.05127C30.5172 4.05127 30.1168 4.21963 29.7803 4.55629L16.1632 18.1733L10.6284 12.6381C10.2916 12.3012 9.89159 12.1331 9.42873 12.1331C8.9658 12.1331 8.56596 12.3012 8.22909 12.6381L5.91406 14.9531C5.57733 15.2899 5.40881 15.6899 5.40881 16.153C5.40881 16.6159 5.57733 17.0158 5.91406 17.3526L14.9639 26.4024C15.3007 26.7394 15.7006 26.9074 16.1635 26.9074C16.6264 26.9074 17.0263 26.7394 17.3631 26.4024L34.4949 9.27081C34.8314 8.93416 35.0001 8.53411 35.0001 8.07117C35.0001 7.60824 34.8318 7.20827 34.4951 6.87161Z" fill="white"/>
</g>
<defs>
<clipPath id="clip0">
<rect width="35" height="35" fill="white"/>
</clipPath>
</defs>
</svg>
