<svg width="246" height="56" viewBox="0 0 246 56" fill="none" xmlns="http://www.w3.org/2000/svg">
<path d="M54.2 46.4004H3.40002L28.8 2.40039L54.2 46.4004Z" fill="#E53027"/>
<path d="M49 43.4012L28.8 8.00117L8.8 43.4012H49ZM51.8 44.8012H6L28.8 5.20117L51.8 44.8012Z" fill="white"/>
<path d="M29.4 38.2008L32.8 35.0008V28.6008L29.4 25.4008L26 28.6008V35.0008L29.4 38.2008ZM29.4 40.8008L24.2 36.2008V27.2008L28 24.0008L26.2 22.4008L25.2 21.6008L29.6 16.8008L32.6 19.4008L31.4 20.8008L29.8 19.4008L28 21.4008L34.2 27.0008L34.8 27.6008V36.6008L29.4 40.8008Z" fill="white"/>
<path d="M238.8 29.2V25.6C238.8 22.4 234.2 20 228.8 20C225.2 20 222 21.2 220.2 22.8C218.4 21.2 215.2 20 211.6 20C208.8 20 206.2 20.6 204.4 21.8C204.4 18.8 204.4 15.8 204.4 15.8C204.4 15 203.8 14.4 203 14.4C202.2 14.4 201.6 15 201.6 15.8C201.6 15.8 201.6 17.8 201.6 20.2H194.4C194.4 17.8 194.4 15.8 194.4 15.8C194.4 15 193.8 14.4 193 14.4C192.2 14.4 191.6 15 191.6 15.8C191.6 15.8 191.6 19.6 191.6 22.8V27V29V42C191.6 44.6 188.4 46.6 184.4 46.6C180.6 46.6 177.6 44.8 177.2 42.4V36.6V33V29.2V27.2C177.4 24.8 180.6 23 184.4 23C184.8 23 185.4 23 185.8 23V14H184H183H181.6L183 16.2V20H182.4C180.6 20 178 21.2 176.2 23.2C174.6 21.4 171.2 20 167.2 20C164.4 20 161.8 20.6 160 21.6C160 18.8 160 15.6 160 15.6C160 14.8 159.4 14.2 158.6 14.2C157.8 14.2 157.2 14.8 157.2 15.6V25.4V25.6V43.8C157.2 47 161.8 49.4 167.2 49.4C171 49.4 174.4 48.2 176 46.4C177.8 48.2 180.8 49.2 184.4 49.2C190 49.2 194.6 46.4 194.6 42.8V26.6V24.6V22.6H201.8C201.8 23.6 201.8 24.6 201.8 25.2V26.4V43.4C201.8 46.6 206.4 49 211.8 49C215.4 49 218.6 47.8 220.4 46.2C222.2 47.8 225.4 49 229 49C234.6 49 239 46.4 239 43.4V36.2V32.6L238.8 29.2ZM167 46.4C163 46.4 159.8 44.4 159.8 41.8V27.4C159.8 24.8 163 22.8 167 22.8C171 22.8 174.2 24.8 174.2 27.4V27.6V30.4V33.4H168.4H165.6V36.4V42.8C165.6 43.6 166.2 43.8 167 43.8C167.8 43.8 168.4 43.4 168.4 42.8V36.4H174.2V42C174.2 44.4 171 46.4 167 46.4ZM211.6 25.8C210.8 25.8 210.2 26.2 210.2 26.8V42.4C210.2 43.2 210.8 43.4 211.6 43.4C212.4 43.4 213 43.2 213 42.4V36H218.8V42C218.8 44.6 215.6 46.6 211.6 46.6C207.6 46.6 204.4 44.6 204.4 42V27.6C204.4 25 207.6 23 211.6 23C215.6 23 218.8 25 218.8 27.6V33.4H213V27C213 26.2 212.4 25.8 211.6 25.8ZM236 42C236 44.6 232.8 46.6 228.8 46.6C224.8 46.6 221.6 44.6 221.6 42V39.2V36.6V36.2L230.2 31.8V27C230.2 26.2 229.6 26 228.8 26C228 26 227.4 26.4 227.4 27V30.4L221.6 33.4V33V27.6C221.6 25 224.8 23 228.8 23C232.8 23 236 25 236 27.6V42Z" fill="#1D1D1B"/>
<path d="M182.8 27.0002V42.6002C182.8 43.4002 183.4 43.6002 184.2 43.6002C185 43.6002 185.6 43.4002 185.6 42.6002V27.0002C185.6 26.2002 185 26.0002 184.2 26.0002C183.4 25.8002 182.8 26.2002 182.8 27.0002Z" fill="#1D1D1B"/>
<path d="M227.4 42.6008C227.4 43.4008 228 43.6008 228.8 43.6008C229.6 43.6008 230.2 43.4008 230.2 42.6008V34.8008L227.4 36.4008V42.6008Z" fill="#1D1D1B"/>
<path d="M168.4 27C168.4 26.2 167.8 26 167 26C166.2 26 165.6 26.4 165.6 27V30.4H168.4V27Z" fill="#1D1D1B"/>
<path d="M149.8 23C149 23 148.4 23.6 148.4 24.4V45C148.4 45.8 149 46.4 149.8 46.4C150.6 46.4 151.2 45.8 151.2 45V24.4C151.2 23.6 150.6 23 149.8 23Z" fill="#1D1D1B"/>
<path d="M141.2 23C140.4 23 139.8 23.6 139.8 24.4V45C139.8 45.8 140.4 46.4 141.2 46.4C142 46.4 142.6 45.8 142.6 45V24.4C142.6 23.6 142 23 141.2 23Z" fill="#1D1D1B"/>
<path d="M149.6 14.6005C149.4 14.4005 149 13.8005 148 14.6005C147 15.2005 146.4 16.0005 145.2 16.0005C144.2 16.0005 143.6 15.2005 142.4 14.4005C141.4 13.6005 141 14.4005 140.8 14.4005C140.6 14.6005 140.2 15.2005 141 15.8005C141.6 16.4005 143.8 18.2005 145.2 18.2005C146.6 18.2005 148.6 16.4005 149.4 15.8005C150.2 15.4005 149.8 14.8005 149.6 14.6005Z" fill="#1D1D1B"/>
<path d="M132.4 14C131.6 14 131 14.6 131 15.4V41.2C131 41.2 130.6 50.6 119.4 50.6C115.2 50.6 112.6 49.4 112.2 49.2C111.2 48.6 110.6 49 110.4 49.4C109.8 50 110.2 50.8 111.2 51.4C112.2 52 115 53.2 119.4 53.2C123.6 53.2 133.8 52 133.8 41.2V15.6C133.8 14.8 133.2 14 132.4 14Z" fill="#1D1D1B"/>
<path fill-rule="evenodd" clip-rule="evenodd" d="M72.2001 14H59.2001L62.4001 17V46.2H73.8001C73.8001 46.2 78.6001 46.4 78.6001 38.4V21.8C78.6001 21.8 78.8001 14 72.2001 14ZM72.2001 30.2V38.2C72.2001 40.6 70.6001 41.4 70.2001 41.4H68.8001V30.4V18.4H70.2001C70.6001 18.4 72.2001 19.2 72.2001 21.6V30.2Z" fill="#1D1D1B"/>
<path fill-rule="evenodd" clip-rule="evenodd" d="M125.6 41.6V25.4C125.6 24.8 125.4 20 118.2 20C111 20 110.8 25 110.8 25.4V30.6L116.6 27.2V24.2C116.6 24 116.6 22.6 118 22.6C119.4 22.6 119.4 23.8 119.4 24.2V28C119.4 28 118.8 28.4 114.6 31.2C110.2 34 110.6 34 110.6 38.8C110.6 42.6 110.4 46.2 118 46.2C126 46.4 125.6 42 125.6 41.6ZM119.8 41.2C119.8 41.6 119.8 42.8 118.4 42.8C117 42.8 117 41.6 117 41.2V35.6C117 34 120 32.4 120 32.4V41.2H119.8Z" fill="#1D1D1B"/>
<path fill-rule="evenodd" clip-rule="evenodd" d="M110 19.8008H104L102.6 23.6008L101.2 19.8008H95.2L99.6 32.4008L93.8 46.4008H100.4L102.6 41.2008L104.8 46.4008H111.4L105.6 32.4008L110 19.8008Z" fill="#1D1D1B"/>
<path fill-rule="evenodd" clip-rule="evenodd" d="M94.8001 36.0008H89.0001V39.6008C89.0001 39.6008 89.0001 41.8008 87.6001 41.8008C86.2001 41.8008 86.2001 39.6008 86.2001 39.6008V34.0008H95.0001V25.8008C95.0001 25.8008 95.0001 19.8008 87.6001 19.8008C80.4001 19.8008 80.2001 24.8008 80.2001 24.8008V38.6008C80.2001 39.0008 80.0001 46.4008 87.4001 46.4008C94.8001 46.4008 94.8001 40.8008 94.8001 40.0008V36.0008ZM85.8001 25.0008C85.8001 24.8008 85.8001 23.4008 87.2001 23.4008C88.6001 23.4008 88.6001 24.6008 88.6001 25.0008V30.2008H85.6001V25.0008H85.8001Z" fill="#1D1D1B"/>
</svg>
