<svg width="50" height="50" viewBox="0 0 50 50" fill="none" xmlns="http://www.w3.org/2000/svg">
<path d="M25 50C38.8071 50 50 38.8071 50 25C50 11.1929 38.8071 0 25 0C11.1929 0 0 11.1929 0 25C0 38.8071 11.1929 50 25 50Z" fill="#3AC559"/>
<path d="M34.515 20.7836C31.6792 19.8508 28.6568 19.4404 25.6717 19.5896C25.3359 16.903 27.015 14.2165 26.418 11.5672C25.8583 9.10453 23.0971 7.3508 20.5971 7.9105C20.5971 10.5224 20.5598 13.1344 20.5598 15.7463C20.5598 16.5299 20.5598 17.3135 20.3359 18.0971C19.403 21.5672 14.9627 22.8732 13.3209 26.0448C11.8284 28.9553 13.1344 32.5747 15.0747 35.2239C15.4478 35.7463 15.8956 36.2687 16.4553 36.5672C17.0896 36.903 17.8732 36.9404 18.5821 37.0523C19.9254 37.2762 21.1568 38.6195 22.4627 38.9553C25.9702 39.8881 26.8284 39.8881 30.2986 38.8433C30.4478 38.806 32.2389 38.7314 32.3508 38.6195C32.612 38.3583 34.7762 36.2314 34.7762 35.8583C34.7015 34.6642 34.3657 33.5075 34.9627 32.4627C35.5224 31.418 36.0075 30.112 35.4851 29.0299C35.2612 28.6195 34.9254 28.209 35 27.7239C35.0374 27.4627 35.1866 27.2389 35.3359 27.0523C36.1941 25.709 36.4926 24.0299 36.1568 22.5001C36.0821 22.0896 35.9329 21.6792 35.6344 21.3807C35.3359 21.0821 34.9254 20.9329 34.515 20.7836Z" fill="#3AC559"/>
<path d="M35.2613 27.9104C35.9329 27.5 36.3434 27.0149 36.8285 26.0821C37.5001 24.8134 37.6121 23.2463 36.3434 21.6418C35.3732 20.4477 34.1419 20.0373 33.5076 19.888C28.6195 18.8433 26.7538 20.1866 26.1568 19.5522C26.1195 19.5149 26.1941 18.9552 26.1941 18.8806C26.1941 18.7313 26.2688 18.6194 26.3434 18.4701C26.53 17.8731 26.7538 17.2761 26.9404 16.6418C27.127 16.0075 27.2762 15.3731 27.3882 14.7388C27.5001 14.1045 27.5374 13.4328 27.5747 12.7985C27.5747 12.0522 27.4255 11.4179 27.2016 10.7836C26.7912 9.55223 26.0449 8.39551 24.9628 7.61193C24.8135 7.49999 24.7016 7.42536 24.5524 7.35073C24.4777 7.31342 24.4031 7.23879 24.3285 7.20148C24.2538 7.16417 24.1792 7.12685 24.1046 7.08954C23.8061 6.94029 23.5076 6.86566 23.1718 6.79103C22.5374 6.64178 21.8285 6.64178 21.1568 6.86566C20.821 6.9776 20.5225 7.16417 20.2613 7.38805C20.0747 7.5373 19.9628 7.72387 19.8509 7.87312C19.7389 8.05969 19.7016 8.20894 19.6643 8.39551C19.5897 8.73133 19.5524 9.02984 19.5524 9.32835V9.55223C19.5524 9.62685 19.5524 9.70148 19.5524 9.77611C19.5524 9.92536 19.5897 10.0746 19.5897 10.2239L20.0001 13.2463C20.1121 14.2164 20.224 15.1492 20.2613 16.0448C20.2613 16.4925 20.2986 16.9403 20.224 17.2388C20.1494 17.5746 20.0001 17.9104 19.7762 18.2463C19.5524 18.5821 19.3285 18.8806 19.0673 19.1791C18.8061 19.5149 18.5822 19.7761 18.3583 20.0746C17.8732 20.6716 17.4255 21.2313 17.0897 21.8657C17.015 22.0149 16.9404 22.1642 16.8658 22.3134C16.6046 22.388 16.0822 22.4627 16.0449 22.5C15.6718 22.6492 15.2613 22.8358 14.8882 23.0224C14.4777 23.2463 14.1792 23.6194 13.918 23.9925C13.4329 24.5895 13.0971 25.2239 12.9479 25.9701C12.7986 26.8283 12.8359 27.7239 12.8359 28.5821C12.8359 29.0298 12.8732 29.5149 12.9479 29.9627C13.1344 31.5298 13.3956 33.097 13.9927 34.5522C14.1419 34.9627 14.3285 35.3358 14.5897 35.7089C14.8509 36.0821 15.1867 36.4179 15.4852 36.7537C15.5598 36.8657 15.6718 36.9403 15.7837 37.0149C15.9329 37.1269 16.0822 37.2761 16.2315 37.388C16.9404 37.9104 17.9479 38.097 18.7688 38.0224C18.7688 38.0224 19.2912 38.0224 19.6643 38.0224C19.8882 38.2463 20.1494 38.4701 20.4479 38.6567C20.821 38.9179 21.1941 39.1045 21.5673 39.2537C21.7538 39.3283 21.9404 39.403 22.127 39.4776C22.3135 39.5522 22.5001 39.5895 22.6867 39.6269C23.4329 39.7761 25.224 39.7761 25.7837 39.7761C27.3135 39.6642 28.1344 39.4776 28.4703 39.291C28.6568 39.3283 28.8434 39.3283 29.03 39.3657C29.3285 39.403 29.627 39.4403 29.9628 39.4403C32.0897 39.4403 34.7389 38.6567 35.1494 36.8657C35.5225 35.2239 35.0747 34.291 34.627 33.7686C35.224 33.5074 35.7091 33.2089 36.0822 32.7612C36.6792 32.0895 37.015 31.194 36.8285 30.1119C36.6419 28.9179 35.9703 28.2836 35.2613 27.9104ZM24.627 39.0672C24.1046 39.0298 23.5076 38.9179 22.8732 38.7686C22.724 38.7313 22.5747 38.694 22.3882 38.6194C22.2389 38.5448 22.0524 38.4701 21.9031 38.3955C21.5673 38.2463 21.2688 38.0597 20.9329 37.8358C20.6344 37.6119 20.3359 37.388 20.0747 37.1269C19.9628 37.0149 19.8135 36.8657 19.7016 36.7537C19.5897 36.6045 19.4777 36.5298 19.4031 36.3806C19.03 35.8582 18.7688 35.2985 18.5076 34.8134C18.2464 34.3283 18.0225 33.9552 17.8359 33.694C17.6494 33.4328 17.5001 33.3209 17.4628 33.3582C17.4255 33.3955 17.4628 33.5448 17.5374 33.8433C17.6121 34.1418 17.7613 34.5149 17.9106 35.0373C18.0971 35.5224 18.2837 36.1194 18.6568 36.7537C18.4329 36.7537 18.1344 36.8283 17.8732 36.791C17.2762 36.7537 16.7165 36.4179 16.2315 36.0448C15.9703 35.8582 15.7091 35.597 15.5225 35.3358C14.7016 34.3657 14.4777 33.0597 14.2538 31.8657C14.1046 30.9701 13.9553 30.0746 13.8807 29.1791C13.7688 28.3209 13.6941 27.4254 13.8807 26.5298C13.9553 26.1567 14.0673 25.7463 14.2538 25.4104C14.5897 24.7388 15.0374 24.1418 15.7091 23.7686C15.8956 23.6567 16.0822 23.5821 16.3061 23.5448C16.3434 23.5448 16.418 23.5074 16.5673 23.5074C16.5673 23.5448 16.5673 23.6194 16.5673 23.6567C16.53 24.2537 16.53 24.7761 16.5673 25.2612C16.6046 26.194 16.6792 26.9403 16.7538 27.4254C16.8285 27.9104 16.8658 28.1716 16.9031 28.1716C16.9404 28.1716 17.015 27.9104 17.015 27.4254C17.0524 26.9403 17.0524 26.194 17.0897 25.2612C17.127 24.8134 17.127 24.291 17.2389 23.7313C17.2762 23.4701 17.3509 23.1716 17.4255 22.9104C17.5001 22.6492 17.6494 22.388 17.8359 22.1269C18.1718 21.6045 18.6195 21.0821 19.1046 20.5224C19.3658 20.2612 19.627 19.9254 19.8509 19.6269C20.1121 19.3283 20.3732 18.9925 20.6344 18.6194C20.8956 18.2463 21.1195 17.7985 21.2688 17.3134C21.3807 16.791 21.3807 16.306 21.3807 15.8582C21.3434 14.9254 21.2688 13.9552 21.1941 12.9851L20.8583 9.96267C20.8583 9.85073 20.821 9.70148 20.821 9.62685C20.821 9.58954 20.821 9.51491 20.821 9.4776V9.29103C20.821 9.06715 20.8583 8.80596 20.9329 8.61939C20.9703 8.43282 21.0449 8.32088 21.1195 8.24626C21.2688 8.13432 21.4553 8.02238 21.6419 7.94775C22.015 7.7985 22.4628 7.79849 22.9479 7.91044C23.1718 7.94775 23.3956 8.05969 23.6195 8.13432C23.6568 8.17163 23.7315 8.17163 23.7688 8.20894C23.8061 8.24626 23.8434 8.24626 23.918 8.28357C24.03 8.3582 24.1419 8.43282 24.2165 8.50745C25.0001 9.10447 25.5971 10.0373 25.9703 11.0821C26.1568 11.6045 26.2688 12.1642 26.2688 12.6492C26.2688 13.2089 26.1941 13.806 26.1195 14.403C26.0076 15 25.8956 15.5597 25.7091 16.1567C25.5225 16.7537 25.3359 17.3134 25.1121 17.9477C25.0747 18.097 25.0001 18.2463 24.9628 18.4328C24.9255 18.6194 24.8509 18.7686 24.8509 19.0672C24.8135 19.4776 24.7762 19.8134 25.1121 20.0373C25.3359 20.1866 25.7091 20.4104 25.9329 20.3731C31.418 20.0373 32.6494 19.9254 34.4031 20.9328C34.8135 21.1567 35.3732 21.6045 35.7091 22.1269C36.9031 23.8806 36.3061 26.0448 34.4777 27.0522C32.9106 27.9104 30.933 27.8358 29.1792 27.6492C28.321 27.5746 27.5001 27.3507 26.7912 26.791C25.821 26.0448 25.6344 24.6269 26.0822 23.6194C26.2688 23.1716 26.6419 22.8731 27.015 22.6492C27.3882 22.4254 27.7613 22.2761 28.0971 22.1642C28.433 22.0522 28.7315 21.9776 28.9553 21.9403C29.4404 21.8283 29.7016 21.791 29.7016 21.7164C29.7016 21.6791 29.4404 21.6418 28.918 21.6418C28.6568 21.6418 28.3583 21.6791 27.9852 21.7537C27.6121 21.8283 27.2016 21.903 26.7538 22.1642C25.9703 22.5746 25.5598 23.2089 25.4106 23.5448C25.2613 23.1343 25.0747 22.7612 24.8882 22.5C24.5897 22.0522 24.3285 21.7164 24.1419 21.5298C23.9553 21.306 23.8061 21.2313 23.7688 21.2686C23.7315 21.306 23.7688 21.4552 23.8434 21.7164C23.9553 21.9776 24.1419 22.3507 24.3285 22.7985C24.515 23.2463 24.7016 23.806 24.8135 24.403C24.8882 25 24.8882 25.7089 24.7762 26.4552C24.5524 27.9104 24.03 29.1791 23.6195 30.0746C23.2091 30.9701 22.9106 31.5672 23.0225 31.6418C23.1344 31.7164 23.5822 31.2686 24.1792 30.4104C24.2538 30.2985 24.3285 30.1866 24.4031 30.0746C24.4031 30.1119 24.4031 30.1492 24.4031 30.1866C24.515 31.2313 25.0001 32.0895 25.821 32.7239C25.2986 32.9477 24.8509 33.3209 24.515 33.806C23.7688 34.9627 23.918 36.3806 24.8882 37.6119C25.4479 38.2836 26.1568 38.694 27.4628 38.9925C26.3061 39.1045 25.2986 39.1418 24.627 39.0672ZM34.2538 36.6045C33.9553 37.9477 31.1941 38.694 29.1419 38.4328C26.9404 38.1716 26.0449 37.8358 25.4479 37.1269C24.7389 36.2313 24.5897 35.2239 25.1121 34.403C25.4479 33.9179 26.0822 33.5074 26.6419 33.4328C27.7986 33.9552 29.3285 34.2537 31.1941 34.2537C31.4927 34.2537 31.7912 34.2537 32.127 34.2164C32.6867 34.1791 33.2091 34.1418 33.6568 34.0298C33.9927 34.3283 34.5897 35.1119 34.2538 36.6045ZM35.3359 32.0895C34.7389 32.7612 33.6195 33.1716 32.0897 33.2089C29.6643 33.3209 25.5598 33.0597 25.224 30.1492C25.1494 29.3283 25.1867 28.3955 26.0449 27.5746L26.0822 27.6119C27.2389 28.9552 32.127 29.1418 34.2165 28.4328C34.7389 28.5075 35.7091 28.806 35.821 30.1866C35.9329 30.9701 35.7464 31.6045 35.3359 32.0895Z" fill="white"/>
</svg>
