<svg width="50" height="50" viewBox="0 0 50 50" fill="none" xmlns="http://www.w3.org/2000/svg">
<path d="M25 50C38.8071 50 50 38.8071 50 25C50 11.1929 38.8071 0 25 0C11.1929 0 0 11.1929 0 25C0 38.8071 11.1929 50 25 50Z" fill="#E62222"/>
<path d="M34.8402 28.9926C32.0043 29.9255 28.982 30.3359 25.9969 30.1867C25.6611 32.8733 27.3402 35.56 26.7432 38.2093C26.1835 40.672 23.4223 42.4258 20.9223 41.8661C20.9223 39.2541 20.8849 36.6421 20.8849 34.0301C20.8849 33.2465 20.8849 32.4629 20.6611 31.6793C19.7282 28.209 15.2879 26.903 13.6461 23.7313C12.1536 20.8208 13.4596 17.2013 15.3999 14.5519C15.773 14.0295 16.2208 13.5071 16.7805 13.2086C17.4148 12.8728 18.1984 12.8355 18.9073 12.7235C20.2506 12.4996 21.482 11.1563 22.7879 10.8205C26.2954 9.88762 27.1536 9.88762 30.6238 10.9324C30.773 10.9697 32.5641 11.0444 32.676 11.1563C32.9372 11.4175 35.1014 13.5444 35.1014 13.9176C35.0267 15.1116 34.6909 16.2684 35.2879 17.3132C35.8476 18.358 36.3327 19.664 35.8103 20.7461C35.5864 21.1566 35.2506 21.567 35.3252 22.0521C35.3626 22.3133 35.5118 22.5372 35.6611 22.7238C36.5193 24.0671 36.8178 25.7463 36.482 27.2762C36.4073 27.6866 36.2581 28.0971 35.9596 28.3956C35.6611 28.6941 35.2506 28.8434 34.8402 28.9926Z" fill="#E62222"/>
<path d="M35.5865 21.8658C36.2581 22.2763 36.6686 22.7614 37.1537 23.6942C37.8253 24.9629 37.9373 26.5301 36.6686 28.1347C35.6984 29.3287 34.4671 29.7392 33.8328 29.8884C28.9447 30.9333 27.079 29.5899 26.482 30.2243C26.4447 30.2616 26.5193 30.8213 26.5193 30.8959C26.5193 31.0452 26.594 31.1571 26.6686 31.3064C26.8552 31.9034 27.079 32.5005 27.2656 33.1348C27.4522 33.7691 27.6014 34.4035 27.7134 35.0378C27.8253 35.6722 27.8626 36.3438 27.8999 36.9782C27.8999 37.7245 27.7507 38.3588 27.5268 38.9932C27.1164 40.2246 26.3701 41.3813 25.288 42.1649C25.1387 42.2768 25.0268 42.3515 24.8775 42.4261C24.8029 42.4634 24.7283 42.538 24.6537 42.5754C24.579 42.6127 24.5044 42.65 24.4298 42.6873C24.1313 42.8366 23.8328 42.9112 23.497 42.9858C22.8626 43.1351 22.1537 43.1351 21.482 42.9112C21.1462 42.7992 20.8477 42.6127 20.5865 42.3888C20.3999 42.2395 20.288 42.053 20.1761 41.9037C20.0641 41.7171 20.0268 41.5679 19.9895 41.3813C19.9149 41.0455 19.8775 40.747 19.8775 40.4484V40.2246C19.8775 40.1499 19.8775 40.0753 19.8775 40.0007C19.8775 39.8514 19.9149 39.7021 19.9149 39.5529L20.3253 36.5304C20.4372 35.5602 20.5492 34.6274 20.5865 33.7318C20.5865 33.2841 20.6238 32.8363 20.5492 32.5378C20.4746 32.2019 20.3253 31.8661 20.1014 31.5303C19.8775 31.1945 19.6537 30.8959 19.3925 30.5974C19.1313 30.2616 18.9074 30.0004 18.6835 29.7019C18.1984 29.1048 17.7507 28.5451 17.4149 27.9108C17.3402 27.7615 17.2656 27.6123 17.191 27.463C16.9298 27.3884 16.4074 27.3137 16.3701 27.2764C15.9969 27.1272 15.5865 26.9406 15.2134 26.754C14.8029 26.5301 14.5044 26.157 14.2432 25.7839C13.7581 25.1868 13.4223 24.5525 13.2731 23.8062C13.1238 22.948 13.1611 22.0524 13.1611 21.1942C13.1611 20.7464 13.1984 20.2613 13.2731 19.8135C13.4596 18.2463 13.7208 16.6791 14.3178 15.2239C14.4671 14.8134 14.6537 14.4403 14.9149 14.0671C15.1761 13.694 15.5119 13.3581 15.8104 13.0223C15.885 12.9104 15.9969 12.8357 16.1089 12.7611C16.2581 12.6492 16.4074 12.4999 16.5567 12.388C17.2656 11.8656 18.2731 11.679 19.094 11.7536C19.094 11.7536 19.6164 11.7536 19.9895 11.7536C20.2134 11.5297 20.4746 11.3059 20.7731 11.1193C21.1462 10.8581 21.5193 10.6715 21.8925 10.5222C22.079 10.4476 22.2656 10.373 22.4522 10.2984C22.6387 10.2237 22.8253 10.1864 23.0119 10.1491C23.7581 9.99984 25.5492 9.99984 26.1089 9.99984C27.6387 10.1118 28.4596 10.2984 28.7955 10.4849C28.982 10.4476 29.1686 10.4476 29.3552 10.4103C29.6537 10.373 29.9522 10.3357 30.288 10.3357C32.4149 10.3357 35.0641 11.1193 35.4746 12.9104C35.8477 14.5522 35.3999 15.4851 34.9522 16.0075C35.5492 16.2687 36.0343 16.5672 36.4074 17.015C37.0044 17.6866 37.3402 18.5822 37.1537 19.6643C36.9671 20.8583 36.2955 21.4927 35.5865 21.8658ZM24.9522 10.7088C24.4298 10.7461 23.8328 10.8581 23.1984 11.0073C23.0492 11.0446 22.8999 11.082 22.7134 11.1566C22.5641 11.2312 22.3775 11.3058 22.2283 11.3805C21.8925 11.5297 21.594 11.7163 21.2581 11.9402C20.9596 12.1641 20.6611 12.388 20.3999 12.6492C20.288 12.7611 20.1387 12.9104 20.0268 13.0223C19.9149 13.1716 19.8029 13.2462 19.7283 13.3955C19.3552 13.9179 19.094 14.4776 18.8328 14.9627C18.5716 15.4478 18.3477 15.8209 18.1611 16.0821C17.9746 16.3433 17.8253 16.4552 17.788 16.4179C17.7507 16.3806 17.788 16.2314 17.8626 15.9328C17.9372 15.6343 18.0865 15.2612 18.2358 14.7388C18.4223 14.2537 18.6089 13.6567 18.982 13.0223C18.7581 13.0223 18.4596 12.9477 18.1984 12.985C17.6014 13.0223 17.0417 13.3581 16.5567 13.7313C16.2955 13.9179 16.0343 14.1791 15.8477 14.4403C15.0268 15.4104 14.8029 16.7164 14.579 17.9105C14.4298 18.8061 14.2805 19.7016 14.2059 20.5971C14.094 21.4554 14.0193 22.3509 14.2059 23.2465C14.2805 23.6196 14.3925 24.0301 14.579 24.3659C14.9149 25.0376 15.3626 25.6346 16.0343 26.0077C16.2208 26.1197 16.4074 26.1943 16.6313 26.2316C16.6686 26.2316 16.7432 26.2689 16.8925 26.2689C16.8925 26.2316 16.8925 26.157 16.8925 26.1197C16.8552 25.5227 16.8552 25.0003 16.8925 24.5152C16.9298 23.5823 17.0044 22.836 17.079 22.3509C17.1537 21.8658 17.191 21.6046 17.2283 21.6046C17.2656 21.6046 17.3402 21.8658 17.3402 22.3509C17.3775 22.836 17.3775 23.5823 17.4149 24.5152C17.4522 24.9629 17.4522 25.4853 17.5641 26.0451C17.6014 26.3063 17.6761 26.6048 17.7507 26.866C17.8253 27.1272 17.9746 27.3884 18.1611 27.6496C18.4969 28.172 18.9447 28.6944 19.4298 29.2541C19.691 29.5153 19.9522 29.8511 20.1761 30.1496C20.4372 30.4482 20.6984 30.784 20.9596 31.1571C21.2208 31.5303 21.4447 31.9781 21.594 32.4631C21.7059 32.9855 21.7059 33.4706 21.7059 33.9184C21.6686 34.8513 21.594 35.8214 21.5193 36.7916L21.1835 39.8141C21.1835 39.926 21.1462 40.0753 21.1462 40.1499C21.1462 40.1872 21.1462 40.2619 21.1462 40.2992V40.4858C21.1462 40.7096 21.1835 40.9708 21.2581 41.1574C21.2955 41.344 21.3701 41.4559 21.4447 41.5306C21.594 41.6425 21.7805 41.7544 21.9671 41.8291C22.3402 41.9783 22.788 41.9783 23.2731 41.8664C23.4969 41.8291 23.7208 41.7171 23.9447 41.6425C23.982 41.6052 24.0567 41.6052 24.094 41.5679C24.1313 41.5306 24.1686 41.5306 24.2432 41.4932C24.3552 41.4186 24.4671 41.344 24.5417 41.2694C25.3253 40.6723 25.9223 39.7395 26.2955 38.6947C26.482 38.1723 26.594 37.6125 26.594 37.1275C26.594 36.5677 26.5193 35.9707 26.4447 35.3737C26.3328 34.7766 26.2208 34.2169 26.0343 33.6199C25.8477 33.0229 25.6611 32.4631 25.4372 31.8288C25.3999 31.6795 25.3253 31.5303 25.288 31.3437C25.2507 31.1571 25.1761 31.0079 25.1761 30.7094C25.1387 30.2989 25.1014 29.9631 25.4372 29.7392C25.6611 29.5899 26.0343 29.366 26.2581 29.4034C31.7432 29.7392 32.9746 29.8511 34.7283 28.8436C35.1387 28.6198 35.6984 28.172 36.0343 27.6496C37.2283 25.8958 36.6313 23.7316 34.8029 22.7241C33.2358 21.8658 31.2581 21.9405 29.5044 22.127C28.6462 22.2017 27.8253 22.4256 27.1164 22.9853C26.1462 23.7316 25.9596 25.1495 26.4074 26.157C26.594 26.6048 26.9671 26.9033 27.3402 27.1272C27.7134 27.3511 28.0865 27.5003 28.4223 27.6123C28.7581 27.7242 29.0567 27.7988 29.2805 27.8362C29.7656 27.9481 30.0268 27.9854 30.0268 28.06C30.0268 28.0974 29.7656 28.1347 29.2432 28.1347C28.982 28.1347 28.6835 28.0974 28.3104 28.0227C27.9372 27.9481 27.5268 27.8735 27.079 27.6123C26.2955 27.2018 25.885 26.5675 25.7358 26.2316C25.5865 26.6421 25.3999 27.0152 25.2134 27.2764C24.9149 27.7242 24.6537 28.06 24.4671 28.2466C24.2805 28.4705 24.1313 28.5451 24.094 28.5078C24.0567 28.4705 24.094 28.3212 24.1686 28.06C24.2805 27.7988 24.4671 27.4257 24.6537 26.9779C24.8402 26.5301 25.0268 25.9704 25.1387 25.3734C25.2134 24.7764 25.2134 24.0674 25.1014 23.3211C24.8775 21.8658 24.3552 20.5971 23.9447 19.7016C23.5343 18.8061 23.2358 18.209 23.3477 18.1344C23.4596 18.0598 23.9074 18.5075 24.5044 19.3658C24.579 19.4777 24.6537 19.5897 24.7283 19.7016C24.7283 19.6643 24.7283 19.627 24.7283 19.5897C24.8402 18.5449 25.3253 17.6866 26.1462 17.0523C25.6238 16.8284 25.1761 16.4552 24.8402 15.9702C24.094 14.8134 24.2432 13.3955 25.2134 12.1641C25.7731 11.4924 26.482 11.082 27.788 10.7834C26.6313 10.6715 25.6238 10.6342 24.9522 10.7088ZM34.579 13.1716C34.2805 11.8283 31.5193 11.082 29.4671 11.3432C27.2656 11.6044 26.3701 11.9402 25.7731 12.6492C25.0641 13.5447 24.9149 14.5522 25.4372 15.3731C25.7731 15.8582 26.4074 16.2687 26.9671 16.3433C28.1238 15.8209 29.6537 15.5224 31.5193 15.5224C31.8178 15.5224 32.1164 15.5224 32.4522 15.5597C33.0119 15.597 33.5343 15.6343 33.982 15.7463C34.3178 15.4478 34.9149 14.6642 34.579 13.1716ZM35.6611 17.6866C35.0641 17.015 33.9447 16.6045 32.4149 16.5672C29.9895 16.4552 25.885 16.7164 25.5492 19.627C25.4746 20.4479 25.5119 21.3808 26.3701 22.2017L26.4074 22.1644C27.5641 20.821 32.4522 20.6345 34.5417 21.3434C35.0641 21.2688 36.0343 20.9703 36.1462 19.5897C36.2581 18.8061 36.0716 18.1717 35.6611 17.6866Z" fill="white"/>
</svg>
