<svg width="65" height="74" viewBox="0 0 65 74" fill="none" xmlns="http://www.w3.org/2000/svg">
<path d="M32.6321 52.6102C32.5088 52.6102 32.3855 52.5593 32.2798 52.4746C30.6242 50.8814 28.1232 48.4915 27.8943 48.2712C27.7182 48.1356 27.6477 47.8814 27.7534 47.678C27.8767 47.4407 28.1761 47.339 28.4227 47.4576C28.5107 47.5085 28.5636 47.5254 32.6321 51.4407L36.7358 47.5424C36.9295 47.3559 37.2465 47.3559 37.4403 47.5424C37.634 47.7288 37.634 48.0339 37.4403 48.2203L33.0019 52.4576C32.8786 52.5593 32.7553 52.6102 32.6321 52.6102Z" fill="white"/>
<path d="M32.6496 45.4407C33.0195 45.4407 33.3189 45.7288 33.3189 46.0847C33.3189 46.4407 33.0195 46.7288 32.6496 46.7288C32.2798 46.7288 31.9803 46.4407 31.9803 46.0847C31.9803 45.7288 32.2798 45.4407 32.6496 45.4407Z" fill="white"/>
<path d="M32.6496 44.1864C33.0193 44.1864 33.3189 43.8981 33.3189 43.5424C33.3189 43.1867 33.0193 42.8983 32.6496 42.8983C32.28 42.8983 31.9803 43.1867 31.9803 43.5424C31.9803 43.8981 32.28 44.1864 32.6496 44.1864Z" fill="white"/>
<path d="M32.6496 48.0339C33.0195 48.0339 33.3189 48.322 33.3189 48.678C33.3189 49.0339 33.0195 49.322 32.6496 49.322C32.2798 49.322 31.9803 49.0339 31.9803 48.678C31.9803 48.3051 32.2798 48.0339 32.6496 48.0339Z" fill="white"/>
<path d="M32.6497 39.678C26.2035 39.678 20.955 34.6271 20.955 28.4237V11.661C20.955 5.45763 26.2035 0.40678 32.6497 0.40678C39.0959 0.40678 44.3444 5.45763 44.3444 11.661V28.4237C44.3268 34.6271 39.0959 39.678 32.6497 39.678ZM32.6497 1.37288C26.7495 1.37288 21.9413 5.98305 21.9413 11.661V28.4237C21.9413 34.1017 26.7319 38.7119 32.6321 38.7119C38.5323 38.7119 43.3229 34.1017 43.3229 28.4237V11.661C43.3405 5.98305 38.5499 1.37288 32.6497 1.37288Z" fill="white"/>
<path d="M32.4912 15.3729C31.364 15.3729 30.4305 14.4915 30.4305 13.3898V8.42373C30.4305 7.33898 31.3464 6.44068 32.4912 6.44068C33.6184 6.44068 34.5519 7.32203 34.5519 8.42373V13.3898C34.5519 14.4915 33.6184 15.3729 32.4912 15.3729ZM32.4912 7.40678C31.91 7.40678 31.4345 7.86441 31.4345 8.42373V13.3898C31.4345 13.9492 31.91 14.4068 32.4912 14.4068C33.0724 14.4068 33.548 13.9492 33.548 13.3898V8.42373C33.5656 7.86441 33.0724 7.40678 32.4912 7.40678Z" fill="white"/>
<path d="M32.4912 10.5763C32.2094 10.5763 31.998 10.3559 31.998 10.1017V8.55932C31.998 8.28813 32.227 8.08474 32.4912 8.08474C32.773 8.08474 32.9843 8.30508 32.9843 8.55932V10.1017C32.9843 10.3559 32.773 10.5763 32.4912 10.5763Z" fill="white"/>
<path d="M5.61719 69.248C5.61719 69.8457 5.39453 70.3066 4.94922 70.6309C4.50391 70.9551 3.87891 71.1172 3.07422 71.1172C2.22266 71.1172 1.55859 70.9824 1.08203 70.7129V69.8105C1.39062 69.9668 1.7207 70.0898 2.07227 70.1797C2.42773 70.2695 2.76953 70.3145 3.09766 70.3145C3.60547 70.3145 3.99609 70.2344 4.26953 70.0742C4.54297 69.9102 4.67969 69.6621 4.67969 69.3301C4.67969 69.0801 4.57031 68.8672 4.35156 68.6914C4.13672 68.5117 3.71484 68.3008 3.08594 68.0586C2.48828 67.8359 2.0625 67.6426 1.80859 67.4785C1.55859 67.3105 1.37109 67.1211 1.24609 66.9102C1.125 66.6992 1.06445 66.4473 1.06445 66.1543C1.06445 65.6309 1.27734 65.2188 1.70312 64.918C2.12891 64.6133 2.71289 64.4609 3.45508 64.4609C4.14648 64.4609 4.82227 64.6016 5.48242 64.8828L5.13672 65.6738C4.49219 65.4082 3.9082 65.2754 3.38477 65.2754C2.92383 65.2754 2.57617 65.3477 2.3418 65.4922C2.10742 65.6367 1.99023 65.8359 1.99023 66.0898C1.99023 66.2617 2.0332 66.4082 2.11914 66.5293C2.20898 66.6504 2.35156 66.7656 2.54688 66.875C2.74219 66.9844 3.11719 67.1426 3.67188 67.3496C4.43359 67.627 4.94727 67.9062 5.21289 68.1875C5.48242 68.4688 5.61719 68.8223 5.61719 69.248ZM9.77148 71.1172C8.8418 71.1172 8.12109 70.832 7.60938 70.2617C7.10156 69.6875 6.84766 68.877 6.84766 67.8301C6.84766 66.7559 7.10547 65.9258 7.62109 65.3398C8.14062 64.7539 8.87891 64.4609 9.83594 64.4609C10.1445 64.4609 10.4531 64.4941 10.7617 64.5605C11.0703 64.627 11.3125 64.7051 11.4883 64.7949L11.1895 65.6211C10.9746 65.5352 10.7402 65.4648 10.4863 65.4102C10.2324 65.3516 10.0078 65.3223 9.8125 65.3223C8.50781 65.3223 7.85547 66.1543 7.85547 67.8184C7.85547 68.6074 8.01367 69.2129 8.33008 69.6348C8.65039 70.0566 9.12305 70.2676 9.74805 70.2676C10.2832 70.2676 10.832 70.1523 11.3945 69.9219V70.7832C10.9648 71.0059 10.4238 71.1172 9.77148 71.1172ZM15.8535 64.4609C16.1387 64.4609 16.3945 64.4844 16.6211 64.5312L16.4863 65.4336C16.2207 65.375 15.9863 65.3457 15.7832 65.3457C15.2637 65.3457 14.8184 65.5566 14.4473 65.9785C14.0801 66.4004 13.8965 66.9258 13.8965 67.5547V71H12.9238V64.5781H13.7266L13.8379 65.7676H13.8848C14.123 65.3496 14.4102 65.0273 14.7461 64.8008C15.082 64.5742 15.4512 64.4609 15.8535 64.4609ZM23.3652 67.7832C23.3652 68.8301 23.1016 69.6484 22.5742 70.2383C22.0469 70.8242 21.3184 71.1172 20.3887 71.1172C19.8145 71.1172 19.3047 70.9824 18.8594 70.7129C18.4141 70.4434 18.0703 70.0566 17.8281 69.5527C17.5859 69.0488 17.4648 68.459 17.4648 67.7832C17.4648 66.7363 17.7266 65.9219 18.25 65.3398C18.7734 64.7539 19.5 64.4609 20.4297 64.4609C21.3281 64.4609 22.041 64.7598 22.5684 65.3574C23.0996 65.9551 23.3652 66.7637 23.3652 67.7832ZM18.4727 67.7832C18.4727 68.6035 18.6367 69.2285 18.9648 69.6582C19.293 70.0879 19.7754 70.3027 20.4121 70.3027C21.0488 70.3027 21.5312 70.0898 21.8594 69.6641C22.1914 69.2344 22.3574 68.6074 22.3574 67.7832C22.3574 66.9668 22.1914 66.3477 21.8594 65.9258C21.5312 65.5 21.0449 65.2871 20.4004 65.2871C19.7637 65.2871 19.2832 65.4961 18.959 65.9141C18.6348 66.332 18.4727 66.9551 18.4727 67.7832ZM26.0488 71H25.0762V61.8828H26.0488V71ZM29.084 71H28.1113V61.8828H29.084V71ZM38.6348 70.1387H38.582C38.1328 70.791 37.4609 71.1172 36.5664 71.1172C35.7266 71.1172 35.0723 70.8301 34.6035 70.2559C34.1387 69.6816 33.9062 68.8652 33.9062 67.8066C33.9062 66.748 34.1406 65.9258 34.6094 65.3398C35.0781 64.7539 35.7305 64.4609 36.5664 64.4609C37.4375 64.4609 38.1055 64.7773 38.5703 65.4102H38.6465L38.6055 64.9473L38.582 64.4961V61.8828H39.5547V71H38.7637L38.6348 70.1387ZM36.6895 70.3027C37.3535 70.3027 37.834 70.123 38.1309 69.7637C38.4316 69.4004 38.582 68.8164 38.582 68.0117V67.8066C38.582 66.8965 38.4297 66.248 38.125 65.8613C37.8242 65.4707 37.3418 65.2754 36.6777 65.2754C36.1074 65.2754 35.6699 65.498 35.3652 65.9434C35.0645 66.3848 34.9141 67.0098 34.9141 67.8184C34.9141 68.6387 35.0645 69.2578 35.3652 69.6758C35.666 70.0938 36.1074 70.3027 36.6895 70.3027ZM47.166 67.7832C47.166 68.8301 46.9023 69.6484 46.375 70.2383C45.8477 70.8242 45.1191 71.1172 44.1895 71.1172C43.6152 71.1172 43.1055 70.9824 42.6602 70.7129C42.2148 70.4434 41.8711 70.0566 41.6289 69.5527C41.3867 69.0488 41.2656 68.459 41.2656 67.7832C41.2656 66.7363 41.5273 65.9219 42.0508 65.3398C42.5742 64.7539 43.3008 64.4609 44.2305 64.4609C45.1289 64.4609 45.8418 64.7598 46.3691 65.3574C46.9004 65.9551 47.166 66.7637 47.166 67.7832ZM42.2734 67.7832C42.2734 68.6035 42.4375 69.2285 42.7656 69.6582C43.0938 70.0879 43.5762 70.3027 44.2129 70.3027C44.8496 70.3027 45.332 70.0898 45.6602 69.6641C45.9922 69.2344 46.1582 68.6074 46.1582 67.7832C46.1582 66.9668 45.9922 66.3477 45.6602 65.9258C45.332 65.5 44.8457 65.2871 44.2012 65.2871C43.5645 65.2871 43.084 65.4961 42.7598 65.9141C42.4355 66.332 42.2734 66.9551 42.2734 67.7832ZM54.1211 71L52.9434 67.2324C52.8691 67.002 52.7305 66.4785 52.5273 65.6621H52.4805C52.3242 66.3457 52.1875 66.873 52.0703 67.2441L50.8574 71H49.7324L47.9805 64.5781H49C49.4141 66.1914 49.7285 67.4199 49.9434 68.2637C50.1621 69.1074 50.2871 69.6758 50.3184 69.9688H50.3652C50.4082 69.7461 50.4766 69.459 50.5703 69.1074C50.668 68.752 50.752 68.4707 50.8223 68.2637L52 64.5781H53.0547L54.2031 68.2637C54.4219 68.9355 54.5703 69.5 54.6484 69.957H54.6953C54.7109 69.8164 54.752 69.5996 54.8184 69.3066C54.8887 69.0137 55.2969 67.4375 56.043 64.5781H57.0508L55.2754 71H54.1211ZM62.6113 71V66.8457C62.6113 66.3223 62.4922 65.9316 62.2539 65.6738C62.0156 65.416 61.6426 65.2871 61.1348 65.2871C60.4629 65.2871 59.9707 65.4688 59.6582 65.832C59.3457 66.1953 59.1895 66.7949 59.1895 67.6309V71H58.2168V64.5781H59.0078L59.166 65.457H59.2129C59.4121 65.1406 59.6914 64.8965 60.0508 64.7246C60.4102 64.5488 60.8105 64.4609 61.252 64.4609C62.0254 64.4609 62.6074 64.6484 62.998 65.0234C63.3887 65.3945 63.584 65.9902 63.584 66.8105V71H62.6113Z" fill="white"/>
</svg>
